<svg width="110" height="108" viewBox="0 0 110 108" fill="none" xmlns="http://www.w3.org/2000/svg">
<path d="M68.6464 46.8733C76.3882 34.9719 88.6291 23.0799 108.016 5.19945C55.3173 53.2495 50.7207 40.7682 48.6437 40.2424C36.6973 32.5295 24.7606 20.3353 6.81267 1.02109C55.0446 53.5214 52.6076 53.5215 7.2718 53.5215C26.6492 53.5215 24.9711 53.5215 40.9906 57.6227C42.1204 57.9119 42.5954 59.2359 41.9595 60.21C33.9985 72.4061 21.2966 84.6301 1.01611 103.303C55.3175 53.7081 50.2207 60.0039 61.9911 66.7996C73.9375 74.5127 85.8743 86.7076 103.822 106.021C55.5903 53.5217 58.0273 53.5217 103.363 53.5217C83.9854 53.5217 85.6633 53.5217 69.6435 49.4202C68.5335 49.136 68.0233 47.8313 68.6464 46.8733Z" stroke="#AAB6FF" stroke-width="3" stroke-miterlimit="10"/>
</svg>
